<?xml version="1.0" encoding="utf-8"?>
<!-- Generator: Adobe Illustrator 21.0.0, SVG Export Plug-In . SVG Version: 6.00 Build 0)  -->
<svg version="1.1" id="Capa_1" xmlns="http://www.w3.org/2000/svg" xmlns:xlink="http://www.w3.org/1999/xlink" x="0px" y="0px"
	 viewBox="0 0 183 82" style="enable-background:new 0 0 183 82;" xml:space="preserve">
<g>
	<polygon points="46.9,78.7 46.9,70.4 51,70.4 51,71 47.7,71 47.7,74.1 50.8,74.1 50.8,74.7 47.7,74.7 47.7,78.1 51,78.1 51,78.7 	
		"/>
	<path d="M53.8,78.8c-1.4,0-2.1-0.8-2.1-0.8l0.4-0.5c0,0,0.7,0.7,1.7,0.7c1,0,1.7-0.6,1.7-1.5c0-2-3.6-1.6-3.6-4.3
		c0-1.5,1.2-2.1,2.6-2.1c0.9,0,1.6,0.3,1.6,0.3v0.6c0,0-0.7-0.3-1.5-0.3c-1,0-1.7,0.5-1.7,1.5c0,2,3.6,1.6,3.6,4.3
		C56.4,78.1,55.2,78.8,53.8,78.8"/>
	<polygon points="59.9,71 59.9,78.7 59,78.7 59,71 56.9,71 56.9,70.4 61.9,70.4 61.9,71 	"/>
	<path d="M65.8,78.8c-1.8,0-2.7-1-2.7-2.8v-5.6H64V76c0,1.3,0.5,2.2,1.8,2.2c1.3,0,1.8-0.9,1.8-2.2v-5.6h0.9V76
		C68.5,77.8,67.6,78.8,65.8,78.8"/>
	<path d="M73,78.7h-2.3v-8.3h2.2c2.5,0,3.6,1.6,3.6,4v0C76.5,76.9,75.4,78.7,73,78.7 M75.6,74.5c0-1.9-0.8-3.4-2.7-3.4h-1.3v7h1.3
		C74.8,78.1,75.6,76.4,75.6,74.5L75.6,74.5z"/>
	<rect x="78.2" y="70.4" width="0.9" height="8.3"/>
	<path d="M83.9,78.8c-2.3,0-3.2-1.9-3.2-4.3c0-2.4,0.9-4.3,3.2-4.3c2.4,0,3.2,1.9,3.2,4.3C87.1,76.9,86.2,78.8,83.9,78.8 M83.9,70.9
		c-1.8,0-2.3,2-2.3,3.6c0,1.7,0.5,3.7,2.3,3.7c1.8,0,2.3-2,2.3-3.7C86.2,72.8,85.7,70.9,83.9,70.9"/>
	<path d="M94.1,78.7h-2.3v-8.3H94c2.5,0,3.6,1.6,3.6,4v0C97.6,76.9,96.5,78.7,94.1,78.7 M96.7,74.5c0-1.9-0.8-3.4-2.7-3.4h-1.3v7H94
		C95.9,78.1,96.7,76.4,96.7,74.5L96.7,74.5z"/>
	<polygon points="99.2,78.7 99.2,70.4 103.4,70.4 103.4,71 100.1,71 100.1,74.1 103.2,74.1 103.2,74.7 100.1,74.7 100.1,78.1 
		103.4,78.1 103.4,78.7 	"/>
	<path d="M110.1,78.7h-2.3v-8.3h2.2c2.5,0,3.6,1.6,3.6,4v0C113.6,76.9,112.6,78.7,110.1,78.7 M112.7,74.5c0-1.9-0.8-3.4-2.7-3.4
		h-1.3v7h1.3C111.9,78.1,112.7,76.4,112.7,74.5L112.7,74.5z"/>
	<rect x="115.3" y="70.4" width="0.9" height="8.3"/>
	<path d="M119.8,78.8c-1.4,0-2.1-0.8-2.1-0.8l0.4-0.5c0,0,0.7,0.7,1.7,0.7c1,0,1.7-0.6,1.7-1.5c0-2-3.6-1.6-3.6-4.3
		c0-1.5,1.2-2.1,2.6-2.1c0.9,0,1.6,0.3,1.6,0.3v0.6c0,0-0.7-0.3-1.5-0.3c-1,0-1.7,0.5-1.7,1.5c0,2,3.6,1.6,3.6,4.3
		C122.3,78.1,121.2,78.8,119.8,78.8"/>
	<polygon points="123.8,78.7 123.8,70.4 128,70.4 128,71 124.7,71 124.7,74.1 127.7,74.1 127.7,74.7 124.7,74.7 124.7,78.1 
		128,78.1 128,78.7 	"/>
	<path d="M133.8,78.7l-3.3-5.7c-0.2-0.3-0.4-0.8-0.4-0.8h-0.1c0,0,0,0.5,0,0.8l0.1,5.7h-0.7v-7.4h1l3.3,5.6c0.2,0.3,0.4,0.8,0.4,0.8
		h0c0,0,0-0.4,0-0.8l-0.1-5.6h0.7v7.4H133.8z M133.3,69.8c-0.8,0-1.3,0.3-2.1,0.3c-0.7,0-1.1-0.4-1.1-0.4v-0.5c0,0,0.3,0.1,0.7,0.1
		c0.8,0,1.3-0.3,2.1-0.3c0.7,0,1.1,0.4,1.1,0.4v0.5C134.1,69.9,133.8,69.8,133.3,69.8"/>
	<path d="M139.7,78.8c-2.3,0-3.2-1.9-3.2-4.3c0-2.4,0.9-4.3,3.2-4.3c2.4,0,3.2,1.9,3.2,4.3C142.9,76.9,141.9,78.8,139.7,78.8
		 M139.7,70.9c-1.8,0-2.3,2-2.3,3.6c0,1.7,0.5,3.7,2.3,3.7c1.8,0,2.3-2,2.3-3.7C141.9,72.8,141.5,70.9,139.7,70.9"/>
	<g>
		<path d="M28.9,54.1l0.3-33.5c0-1.8,0.3-4.5,0.3-4.5h-0.3c0,0-0.5,2.8-1.1,4.5l-7,21.7h-5.6L8.4,20.1c-0.4-1.5-1-4.1-1-4.1H7.2
			c0,0,0.3,2.9,0.3,4.2l0.4,33.8H3.2V9.3h7.1l7.4,23.1c0.5,1.7,1.2,4.2,1.2,4.2H19c0,0,0.6-2.6,1.2-4.3l7.5-23h6.8v44.8H28.9z"/>
		<path d="M46.9,54.1V9.3h18.6v4.2h-13v15.3h12.3v4.2H52.4v17h13v4.2H46.9z"/>
		<path d="M95,55.1l-3.3-16.2c-0.9-4.3-2.5-6-6.4-6h-2.6v21.2h-5.6V9.3h10c7.5,0,11.5,3.8,11.5,11.4c0,9.1-5.8,10.2-5.8,10.2
			c2.7,1.7,3.6,3.7,4.9,9.6l2.8,12.3L95,55.1z M86.5,13.4h-3.8v15.3h3.8c4.3,0,6.4-3.5,6.4-8C92.9,16.3,90.9,13.4,86.5,13.4z"/>
		<path d="M111.5,54.1V9.3h5.6v40.6h9.3v4.2H111.5z"/>
		<path d="M135.2,10l-0.9-2.9L147.2,2v5.3L135.2,10z M137.5,54.1V13.9h5.6v40.1H137.5z"/>
		<path d="M171.7,54.1l-8.8-34c-0.4-1.7-0.9-4.2-0.9-4.2h-0.3c0,0,0.3,2.5,0.3,4.2l0.5,34h-4.7V9.3h7.7l8.8,33.8
			c0.4,1.7,0.9,4.2,0.9,4.2h0.3c0,0-0.2-2.4-0.3-4.2l-0.5-33.8h4.7v44.8H171.7z"/>
	</g>
</g>
</svg>
